<mxfile host="app.diagrams.net" agent="Mozilla/5.0 (Windows NT 10.0; Win64; x64) AppleWebKit/537.36 (KHTML, like Gecko) Chrome/132.0.0.0 YaBrowser/25.2.0.0 Safari/537.36" version="26.0.13">
  <diagram name="Страница — 1" id="At0R0NxvHM6mus76tEux">
    <mxGraphModel dx="1562" dy="863" grid="1" gridSize="10" guides="1" tooltips="1" connect="1" arrows="1" fold="1" page="1" pageScale="1" pageWidth="827" pageHeight="1169" math="0" shadow="0">
      <root>
        <mxCell id="0" />
        <mxCell id="1" parent="0" />
        <mxCell id="WkIa72aEEKLCxDkk-UFu-8" style="edgeStyle=orthogonalEdgeStyle;rounded=0;orthogonalLoop=1;jettySize=auto;html=1;entryX=0.5;entryY=0;entryDx=0;entryDy=0;" edge="1" parent="1" source="WkIa72aEEKLCxDkk-UFu-1" target="WkIa72aEEKLCxDkk-UFu-4">
          <mxGeometry relative="1" as="geometry" />
        </mxCell>
        <mxCell id="WkIa72aEEKLCxDkk-UFu-1" value="" style="rounded=0;whiteSpace=wrap;html=1;" vertex="1" parent="1">
          <mxGeometry x="350" y="410" width="120" height="60" as="geometry" />
        </mxCell>
        <mxCell id="WkIa72aEEKLCxDkk-UFu-7" style="edgeStyle=orthogonalEdgeStyle;rounded=0;orthogonalLoop=1;jettySize=auto;html=1;" edge="1" parent="1" source="WkIa72aEEKLCxDkk-UFu-3" target="WkIa72aEEKLCxDkk-UFu-1">
          <mxGeometry relative="1" as="geometry" />
        </mxCell>
        <mxCell id="WkIa72aEEKLCxDkk-UFu-3" value="" style="rhombus;whiteSpace=wrap;html=1;" vertex="1" parent="1">
          <mxGeometry x="370" y="300" width="80" height="80" as="geometry" />
        </mxCell>
        <mxCell id="WkIa72aEEKLCxDkk-UFu-4" value="" style="rhombus;whiteSpace=wrap;html=1;" vertex="1" parent="1">
          <mxGeometry x="370" y="505" width="80" height="80" as="geometry" />
        </mxCell>
        <mxCell id="WkIa72aEEKLCxDkk-UFu-6" style="edgeStyle=orthogonalEdgeStyle;rounded=0;orthogonalLoop=1;jettySize=auto;html=1;" edge="1" parent="1" source="WkIa72aEEKLCxDkk-UFu-5" target="WkIa72aEEKLCxDkk-UFu-3">
          <mxGeometry relative="1" as="geometry" />
        </mxCell>
        <mxCell id="WkIa72aEEKLCxDkk-UFu-5" value="" style="rounded=0;whiteSpace=wrap;html=1;" vertex="1" parent="1">
          <mxGeometry x="350" y="180" width="120" height="60" as="geometry" />
        </mxCell>
      </root>
    </mxGraphModel>
  </diagram>
</mxfile>
